<?xml version="1.0" encoding="UTF-8"?>
<!DOCTYPE svg PUBLIC "-//W3C//DTD SVG 1.1//EN" "http://www.w3.org/Graphics/SVG/1.1/DTD/svg11.dtd">
<svg xmlns="http://www.w3.org/2000/svg" version="1.1" width="221px" height="228px" style="shape-rendering:geometricPrecision; text-rendering:geometricPrecision; image-rendering:optimizeQuality; fill-rule:evenodd; clip-rule:evenodd" xmlns:xlink="http://www.w3.org/1999/xlink">
<g><path style="opacity:1" fill="#f5f5f5" d="M -0.5,-0.5 C 73.1667,-0.5 146.833,-0.5 220.5,-0.5C 220.5,75.5 220.5,151.5 220.5,227.5C 146.833,227.5 73.1667,227.5 -0.5,227.5C -0.5,151.5 -0.5,75.5 -0.5,-0.5 Z"/></g>
<g><path style="opacity:1" fill="#1c2d26" d="M 108.5,10.5 C 136.294,19.9659 159.46,35.9659 178,58.5C 184.835,68.8356 188.835,80.1689 190,92.5C 190.5,133.832 190.667,175.165 190.5,216.5C 136.833,216.5 83.1667,216.5 29.5,216.5C 29.3333,177.499 29.5,138.499 30,99.5C 29.6899,76.6249 38.1899,57.7916 55.5,43C 71.5928,29.6193 89.2595,18.786 108.5,10.5 Z"/></g>
<g><path style="opacity:1" fill="#ece29d" d="M 74.5,32.5 C 76.2231,33.6053 77.2231,35.2719 77.5,37.5C 67.9533,43.7068 59.2866,51.0402 51.5,59.5C 51.6621,57.4727 51.4955,55.4727 51,53.5C 50.6174,54.056 50.1174,54.3893 49.5,54.5C 51.8926,50.5977 54.8926,47.0977 58.5,44C 63.6862,39.9121 69.0195,36.0787 74.5,32.5 Z"/></g>
<g><path style="opacity:1" fill="#dac373" d="M 124.5,20.5 C 131.615,22.977 137.948,26.6436 143.5,31.5C 142.209,32.5417 142.209,33.7083 143.5,35C 142.584,35.2784 141.918,35.7784 141.5,36.5C 135.33,32.5808 128.997,28.9141 122.5,25.5C 123.024,23.6943 123.691,22.0276 124.5,20.5 Z"/></g>
<g><path style="opacity:1" fill="#dcc576" d="M 91.5,22.5 C 93.2231,23.6053 94.2231,25.2719 94.5,27.5C 88.6688,30.5812 83.0021,33.9145 77.5,37.5C 77.2231,35.2719 76.2231,33.6053 74.5,32.5C 79.6649,28.4137 85.3315,25.0804 91.5,22.5 Z"/></g>
<g><path style="opacity:1" fill="#182b25" d="M 122.5,25.5 C 128.997,28.9141 135.33,32.5808 141.5,36.5C 153.084,44.0828 163.084,53.4161 171.5,64.5C 177.173,73.6855 180.339,83.6855 181,94.5C 181.5,132.165 181.667,169.832 181.5,207.5C 133.833,207.5 86.1667,207.5 38.5,207.5C 38.3333,169.499 38.5,131.499 39,93.5C 40.1128,80.9598 44.2795,69.6265 51.5,59.5C 59.2866,51.0402 67.9533,43.7068 77.5,37.5C 83.0021,33.9145 88.6688,30.5812 94.5,27.5C 99.4749,24.7629 104.642,22.4296 110,20.5C 114.232,22.0338 118.399,23.7005 122.5,25.5 Z"/></g>
<g><path style="opacity:1" fill="#c6a650" d="M 124.5,20.5 C 123.691,22.0276 123.024,23.6943 122.5,25.5C 118.399,23.7005 114.232,22.0338 110,20.5C 104.642,22.4296 99.4749,24.7629 94.5,27.5C 94.2231,25.2719 93.2231,23.6053 91.5,22.5C 97.2689,18.8665 103.436,15.8665 110,13.5C 115.23,15.1996 120.063,17.5329 124.5,20.5 Z"/></g>
<g><path style="opacity:1" fill="#ece29c" d="M 143.5,31.5 C 149.878,35.0312 155.878,39.1979 161.5,44C 166.49,48.1436 170.49,52.9769 173.5,58.5C 172.883,58.3893 172.383,58.056 172,57.5C 172.384,60.0896 172.217,62.4229 171.5,64.5C 163.084,53.4161 153.084,44.0828 141.5,36.5C 141.918,35.7784 142.584,35.2784 143.5,35C 142.209,33.7083 142.209,32.5417 143.5,31.5 Z"/></g>
<g><path style="opacity:1" fill="#cca74d" d="M 117.5,66.5 C 117.5,73.5 117.5,80.5 117.5,87.5C 116.5,87.5 115.5,87.5 114.5,87.5C 109.365,87.2924 104.365,87.9591 99.5,89.5C 99.8256,85.1161 99.4922,80.7828 98.5,76.5C 96.9291,77.3094 95.2624,77.6427 93.5,77.5C 95.8383,75.9605 98.5049,75.2938 101.5,75.5C 102.167,72.1667 102.833,68.8333 103.5,65.5C 108.23,65.2834 112.897,65.6167 117.5,66.5 Z"/></g>
<g><path style="opacity:1" fill="#e0ca7a" d="M 51.5,59.5 C 44.2795,69.6265 40.1128,80.9598 39,93.5C 38.5,131.499 38.3333,169.499 38.5,207.5C 42.2984,208.483 46.2984,208.817 50.5,208.5C 51.2341,209.708 51.5674,211.041 51.5,212.5C 50.209,212.263 49.209,212.596 48.5,213.5C 44.1667,213.5 39.8333,213.5 35.5,213.5C 37.1598,172.48 38.1598,131.314 38.5,90C 37.858,85.3993 37.1913,80.8993 36.5,76.5C 38.7893,67.9157 43.1227,60.5824 49.5,54.5C 50.1174,54.3893 50.6174,54.056 51,53.5C 51.4955,55.4727 51.6621,57.4727 51.5,59.5 Z"/></g>
<g><path style="opacity:1" fill="#dabf6b" d="M 99.5,89.5 C 96.8333,90.5 94.1667,91.5 91.5,92.5C 91.2202,87.7916 90.2202,83.4583 88.5,79.5C 89.9303,78.4625 91.597,77.7959 93.5,77.5C 95.2624,77.6427 96.9291,77.3094 98.5,76.5C 99.4922,80.7828 99.8256,85.1161 99.5,89.5 Z"/></g>
<g><path style="opacity:1" fill="#d5b965" d="M 117.5,66.5 C 119.265,69.1226 119.932,72.1226 119.5,75.5C 122.67,76.2655 125.67,77.2655 128.5,78.5C 127.78,82.7297 127.113,87.063 126.5,91.5C 122.416,90.1523 118.416,88.819 114.5,87.5C 115.5,87.5 116.5,87.5 117.5,87.5C 117.5,80.5 117.5,73.5 117.5,66.5 Z"/></g>
<g><path style="opacity:1" fill="#dac374" d="M 173.5,58.5 C 181.598,68.272 186.098,79.6053 187,92.5C 187.5,132.832 187.667,173.165 187.5,213.5C 183.167,213.5 178.833,213.5 174.5,213.5C 173.791,212.596 172.791,212.263 171.5,212.5C 171.33,211.178 171.663,210.011 172.5,209C 165.842,208.5 159.175,208.334 152.5,208.5C 142.833,208.5 133.167,208.5 123.5,208.5C 113.833,208.5 104.167,208.5 94.5,208.5C 85.8333,208.5 77.1667,208.5 68.5,208.5C 62.5,208.5 56.5,208.5 50.5,208.5C 46.2984,208.817 42.2984,208.483 38.5,207.5C 86.1667,207.5 133.833,207.5 181.5,207.5C 181.667,169.832 181.5,132.165 181,94.5C 180.339,83.6855 177.173,73.6855 171.5,64.5C 172.217,62.4229 172.384,60.0896 172,57.5C 172.383,58.056 172.883,58.3893 173.5,58.5 Z"/></g>
<g><path style="opacity:1" fill="#d7ba66" d="M 36.5,76.5 C 37.1913,80.8993 37.858,85.3993 38.5,90C 38.1598,131.314 37.1598,172.48 35.5,213.5C 34.5,213.5 33.5,213.5 32.5,213.5C 32.0813,170.482 32.5813,127.482 34,84.5C 34.2794,81.5432 35.1127,78.8766 36.5,76.5 Z"/></g>
<g><path style="opacity:1" fill="#e7d385" d="M 76.5,76.5 C 77.2506,75.4265 78.2506,75.2599 79.5,76C 81.0542,77.892 82.8876,79.392 85,80.5C 86.1385,80.0109 87.3052,79.6775 88.5,79.5C 90.2202,83.4583 91.2202,87.7916 91.5,92.5C 86.5399,95.7923 82.2066,99.7923 78.5,104.5C 77.8333,95.1667 77.1667,85.8333 76.5,76.5 Z"/></g>
<g><path style="opacity:1" fill="#e7d283" d="M 141.5,76.5 C 142.695,86.0247 142.695,95.358 141.5,104.5C 137.437,99.1047 132.437,94.7713 126.5,91.5C 127.113,87.063 127.78,82.7297 128.5,78.5C 130.84,79.086 133.007,80.086 135,81.5C 137.328,80.0007 139.495,78.334 141.5,76.5 Z"/></g>
<g><path style="opacity:1" fill="#192b25" d="M 114.5,87.5 C 118.416,88.819 122.416,90.1523 126.5,91.5C 132.437,94.7713 137.437,99.1047 141.5,104.5C 149.544,118.997 149.21,133.33 140.5,147.5C 135.348,153.575 129.014,157.908 121.5,160.5C 115.27,162.581 108.937,162.914 102.5,161.5C 99.1771,160.508 95.8437,159.508 92.5,158.5C 87.2056,154.873 82.539,150.54 78.5,145.5C 73.973,137.057 72.1396,128.057 73,118.5C 74.5631,113.71 76.3964,109.044 78.5,104.5C 82.2066,99.7923 86.5399,95.7923 91.5,92.5C 94.1667,91.5 96.8333,90.5 99.5,89.5C 104.365,87.9591 109.365,87.2924 114.5,87.5 Z"/></g>
<g><path style="opacity:1" fill="#f6eca5" d="M 76.5,76.5 C 77.1667,85.8333 77.8333,95.1667 78.5,104.5C 76.3964,109.044 74.5631,113.71 73,118.5C 72.1396,128.057 73.973,137.057 78.5,145.5C 77.8333,150.5 77.1667,155.5 76.5,160.5C 72.8139,157.359 68.8139,157.359 64.5,160.5C 63.8933,160.376 63.56,160.043 63.5,159.5C 64.8243,141.736 64.8243,124.069 63.5,106.5C 65.1772,101.645 67.5106,97.1451 70.5,93C 69.3847,90.3844 68.0514,87.8844 66.5,85.5C 69.2311,81.7657 72.5644,78.7657 76.5,76.5 Z"/></g>
<g><path style="opacity:1" fill="#f6eda6" d="M 141.5,76.5 C 146.013,78.0213 149.847,80.688 153,84.5C 152.476,87.5814 151.309,90.5814 149.5,93.5C 152.038,97.2432 154.038,101.243 155.5,105.5C 154.175,123.736 154.175,142.069 155.5,160.5C 155.265,161.097 154.765,161.43 154,161.5C 151.54,160.402 149.04,159.402 146.5,158.5C 145.482,159.193 144.482,159.859 143.5,160.5C 142.674,156.018 142.174,151.351 142,146.5C 141.617,147.056 141.117,147.389 140.5,147.5C 149.21,133.33 149.544,118.997 141.5,104.5C 142.695,95.358 142.695,86.0247 141.5,76.5 Z"/></g>
<g><path style="opacity:1" fill="#edde94" d="M 155.5,105.5 C 158.831,107.298 162.498,107.964 166.5,107.5C 167.815,112.744 168.482,118.077 168.5,123.5C 165.5,124.167 162.5,124.833 159.5,125.5C 159.343,130.976 158.343,136.31 156.5,141.5C 158.611,143.792 160.611,146.292 162.5,149C 161.026,153.465 158.693,157.298 155.5,160.5C 154.175,142.069 154.175,123.736 155.5,105.5 Z"/></g>
<g><path style="opacity:1" fill="#e7d587" d="M 63.5,106.5 C 64.8243,124.069 64.8243,141.736 63.5,159.5C 60.3073,156.298 57.974,152.465 56.5,148C 58.5296,145.311 60.5296,142.644 62.5,140C 60.9794,135.314 60.146,130.48 60,125.5C 57.5567,124.407 55.0567,123.407 52.5,122.5C 52.1667,121 51.8333,119.5 51.5,118C 51.9308,114.114 52.5974,110.28 53.5,106.5C 56.8333,106.5 60.1667,106.5 63.5,106.5 Z"/></g>
<g><path style="opacity:1" fill="#c9af62" d="M 118.5,117.5 C 116.918,120.876 116.251,124.542 116.5,128.5C 115.783,126.047 114.616,123.713 113,121.5C 112.517,122.448 112.351,123.448 112.5,124.5C 111.5,124.5 110.5,124.5 109.5,124.5C 109.5,123.5 109.5,122.5 109.5,121.5C 108.5,121.5 107.5,121.5 106.5,121.5C 106.279,124.067 105.612,126.401 104.5,128.5C 104.821,123.305 104.487,118.305 103.5,113.5C 100.112,108.161 101.112,103.828 106.5,100.5C 107.48,97.9135 107.813,95.2469 107.5,92.5C 109.167,92.5 110.833,92.5 112.5,92.5C 112.187,95.2469 112.52,97.9135 113.5,100.5C 119.538,103.153 120.872,107.319 117.5,113C 118.148,114.44 118.481,115.94 118.5,117.5 Z"/></g>
<g><path style="opacity:1" fill="#182b24" d="M 107.5,101.5 C 114.173,100.382 117.34,103.049 117,109.5C 116.311,108.643 115.478,107.977 114.5,107.5C 110.705,107.819 107.205,108.819 104,110.5C 102.665,106.392 103.832,103.392 107.5,101.5 Z"/></g>
<g><path style="opacity:1" fill="#142822" d="M 109.5,111.5 C 111.216,112.574 112.216,114.241 112.5,116.5C 112.062,117.506 111.396,117.506 110.5,116.5C 109.749,117.376 109.249,118.376 109,119.5C 108.825,116.843 108.992,114.176 109.5,111.5 Z"/></g>
<g><path style="opacity:1" fill="#e4d892" d="M 118.5,117.5 C 120.766,119.763 123.433,120.096 126.5,118.5C 128.111,119.32 128.778,120.654 128.5,122.5C 125.873,121.908 123.206,121.575 120.5,121.5C 122.723,131.446 125.39,141.28 128.5,151C 128.138,152.225 127.638,153.391 127,154.5C 124.626,152.461 122.626,150.128 121,147.5C 119.34,141.194 117.84,134.86 116.5,128.5C 116.251,124.542 116.918,120.876 118.5,117.5 Z"/></g>
<g><path style="opacity:1" fill="#e5d890" d="M 103.5,113.5 C 104.487,118.305 104.821,123.305 104.5,128.5C 102.827,135.524 100.994,142.524 99,149.5C 97.3333,151.167 95.6667,152.833 94,154.5C 93.3623,153.391 92.8623,152.225 92.5,151C 95.4785,141.234 98.1452,131.401 100.5,121.5C 98.2655,121.38 96.0989,121.713 94,122.5C 90.9736,121.462 90.8069,120.128 93.5,118.5C 99.2808,121.105 102.614,119.438 103.5,113.5 Z"/></g>
<g><path style="opacity:1" fill="#e4d081" d="M 78.5,145.5 C 82.539,150.54 87.2056,154.873 92.5,158.5C 91.1803,161.428 90.5136,164.761 90.5,168.5C 90.5352,172.249 90.8685,175.916 91.5,179.5C 88.702,178.9 86.0354,177.9 83.5,176.5C 83.1918,173.25 83.0252,169.917 83,166.5C 80.6647,164.6 78.498,162.6 76.5,160.5C 77.1667,155.5 77.8333,150.5 78.5,145.5 Z"/></g>
<g><path style="opacity:1" fill="#dbbf6a" d="M 92.5,158.5 C 95.8437,159.508 99.1771,160.508 102.5,161.5C 102.763,165.6 102.43,169.6 101.5,173.5C 100.513,175.473 99.5133,177.473 98.5,179.5C 96.0268,180.797 93.6934,180.797 91.5,179.5C 90.8685,175.916 90.5352,172.249 90.5,168.5C 90.5136,164.761 91.1803,161.428 92.5,158.5 Z"/></g>
<g><path style="opacity:1" fill="#e0c877" d="M 143.5,160.5 C 140.494,163.173 137.494,165.84 134.5,168.5C 135.302,171.449 135.636,174.449 135.5,177.5C 131.889,178.653 128.223,179.653 124.5,180.5C 123.761,180.631 123.094,180.464 122.5,180C 124.102,173.299 123.768,166.799 121.5,160.5C 129.014,157.908 135.348,153.575 140.5,147.5C 141.117,147.389 141.617,147.056 142,146.5C 142.174,151.351 142.674,156.018 143.5,160.5 Z"/></g>
<g><path style="opacity:1" fill="#cfab52" d="M 121.5,160.5 C 123.768,166.799 124.102,173.299 122.5,180C 123.094,180.464 123.761,180.631 124.5,180.5C 123.399,181.598 122.066,181.765 120.5,181C 119.167,178.667 117.833,176.333 116.5,174C 111.511,173.501 106.511,173.334 101.5,173.5C 102.43,169.6 102.763,165.6 102.5,161.5C 108.937,162.914 115.27,162.581 121.5,160.5 Z"/></g>
<g><path style="opacity:1" fill="#f9efa6" d="M 50.5,208.5 C 56.5,208.5 62.5,208.5 68.5,208.5C 68.5,209.833 68.5,211.167 68.5,212.5C 69.791,212.263 70.791,212.596 71.5,213.5C 63.8333,213.5 56.1667,213.5 48.5,213.5C 49.209,212.596 50.209,212.263 51.5,212.5C 51.5674,211.041 51.2341,209.708 50.5,208.5 Z"/></g>
<g><path style="opacity:1" fill="#e7d07d" d="M 68.5,208.5 C 77.1667,208.5 85.8333,208.5 94.5,208.5C 93.7659,209.708 93.4326,211.041 93.5,212.5C 95.099,212.232 96.4324,212.566 97.5,213.5C 88.8333,213.5 80.1667,213.5 71.5,213.5C 70.791,212.596 69.791,212.263 68.5,212.5C 68.5,211.167 68.5,209.833 68.5,208.5 Z"/></g>
<g><path style="opacity:1" fill="#d0ab50" d="M 94.5,208.5 C 104.167,208.5 113.833,208.5 123.5,208.5C 123.5,209.833 123.5,211.167 123.5,212.5C 122.209,212.263 121.209,212.596 120.5,213.5C 112.833,213.5 105.167,213.5 97.5,213.5C 96.4324,212.566 95.099,212.232 93.5,212.5C 93.4326,211.041 93.7659,209.708 94.5,208.5 Z"/></g>
<g><path style="opacity:1" fill="#e8d382" d="M 123.5,208.5 C 133.167,208.5 142.833,208.5 152.5,208.5C 152.5,209.833 152.5,211.167 152.5,212.5C 150.901,212.232 149.568,212.566 148.5,213.5C 139.167,213.5 129.833,213.5 120.5,213.5C 121.209,212.596 122.209,212.263 123.5,212.5C 123.5,211.167 123.5,209.833 123.5,208.5 Z"/></g>
<g><path style="opacity:1" fill="#f9f0a8" d="M 152.5,208.5 C 159.175,208.334 165.842,208.5 172.5,209C 171.663,210.011 171.33,211.178 171.5,212.5C 172.791,212.263 173.791,212.596 174.5,213.5C 165.833,213.5 157.167,213.5 148.5,213.5C 149.568,212.566 150.901,212.232 152.5,212.5C 152.5,211.167 152.5,209.833 152.5,208.5 Z"/></g>
</svg>
